<?xml version="1.0" encoding="UTF-8"?>
<svg id="_레이어_2" data-name="레이어 2" xmlns="http://www.w3.org/2000/svg" viewBox="0 0 56.69 56.69">
  <defs>
    <style>
      .cls-1 {
        fill: lime;
      }

      .cls-1, .cls-2, .cls-3, .cls-4 {
        stroke-width: 0px;
      }

      .cls-2 {
        fill: #ff9700;
      }

      .cls-3 {
        fill: #fff;
      }

      .cls-4 {
        fill: #fff800;
      }
    </style>
  </defs>
  <g id="_레이어_1-2" data-name="레이어 1">
    <g>
      <path class="cls-3" d="M29.24.01c-4.97,5.09-12.37,13.77-15.58,23.18-3.46,10.15-2.95,21.15-2.07,28.02,2.26,1.66,4.81,3,7.61,3.96L37.49,1.52C34.76.59,31.98.1,29.24.01Z"/>
      <path class="cls-2" d="M29.24.01C17.11-.37,5.64,7.12,1.52,19.2c-4.1,12.02.34,24.89,10.08,32.01-.88-6.87-1.39-17.87,2.07-28.02C16.87,13.79,24.27,5.1,29.24.01Z"/>
      <path class="cls-4" d="M44.94,5.36c-2.22-1.61-4.72-2.91-7.45-3.84l-18.28,53.65c2.79.95,5.64,1.44,8.44,1.51,4.89-4.9,12.02-13.3,15.47-23.45,3.21-9.41,2.65-20.8,1.82-27.87Z"/>
      <path class="cls-1" d="M55.17,37.49c4.12-12.08-.39-25.02-10.23-32.12.83,7.07,1.39,18.46-1.82,27.87-3.46,10.15-10.58,18.55-15.47,23.45,12.06.3,23.43-7.18,27.53-19.19Z"/>
    </g>
  </g>
</svg>