<?xml version="1.0" encoding="UTF-8"?>
<svg id="_레이어_2" data-name="레이어 2" xmlns="http://www.w3.org/2000/svg" viewBox="0 0 60.69 59.89">
  <defs>
    <style>
      .cls-1 {
        fill: #ff9700;
        stroke-width: 0px;
      }

      .cls-2 {
        fill: none;
        stroke: #ff9700;
        stroke-linecap: round;
        stroke-miterlimit: 10;
        stroke-width: 4px;
      }
    </style>
  </defs>
  <g id="_레이어_1-2" data-name="레이어 1">
    <g>
      <circle class="cls-1" cx="29.78" cy="30.52" r="13.12"/>
      <path class="cls-2" d="M29.34,12.25s3.68-2.4.37-5.18l.14.12c-3.31-2.79.37-5.18.37-5.18"/>
      <path class="cls-2" d="M17.67,17.25s1.28-4.2-3.05-4.21h.18c-4.33,0-3.05-4.21-3.05-4.21"/>
      <path class="cls-2" d="M11.95,28.59s-1.72-4.04-5.04-1.26l.14-.12c-3.32,2.78-5.04-1.26-5.04-1.26"/>
      <path class="cls-2" d="M14.84,40.95s-3.92-1.99-4.67,2.27l.03-.18c-.76,4.26-4.67,2.27-4.67,2.27"/>
      <path class="cls-2" d="M25.01,48.55s-4.28,1-2.12,4.75l-.09-.16c2.16,3.75-2.12,4.75-2.12,4.75"/>
      <path class="cls-2" d="M37.69,47.84s-2.64,3.51,1.43,5l-.17-.06c4.06,1.49,1.43,5,1.43,5"/>
      <path class="cls-2" d="M46.94,39.15s.24,4.39,4.31,2.91l-.17.06c4.07-1.47,4.31,2.91,4.31,2.91"/>
      <path class="cls-2" d="M48.44,26.55s3,3.21,5.17-.54l-.09.16c2.17-3.74,5.17-.54,5.17-.54"/>
      <path class="cls-2" d="M41.49,15.92s4.36.53,3.61-3.74l.03.18c-.75-4.26,3.61-3.74,3.61-3.74"/>
    </g>
  </g>
</svg>