<?xml version="1.0" encoding="UTF-8"?>
<svg id="_레이어_2" data-name="레이어 2" xmlns="http://www.w3.org/2000/svg" viewBox="0 0 56.69 56.69">
  <defs>
    <style>
      .cls-1 {
        fill: none;
      }

      .cls-1, .cls-2, .cls-3 {
        stroke-width: 0px;
      }

      .cls-2 {
        fill: #ff9700;
      }

      .cls-3 {
        fill: #fff;
      }
    </style>
  </defs>
  <g id="_레이어_1-2" data-name="레이어 1">
    <g>
      <path class="cls-1" d="M31.77,15.28v2.74h-6.85v-2.74c-4.71,1.23-8.41,4.93-9.64,9.64h4.63c.24,0,.43.19.43.43v5.99c0,.24-.19.43-.43.43h-4.63c1.23,4.71,4.93,8.41,9.64,9.64v-2.29h6.85v2.29c4.64-1.21,8.3-4.82,9.59-9.42h-3.89v-6.85h4.01c-1.17-4.82-4.92-8.61-9.7-9.86Z"/>
      <path class="cls-3" d="M24.92,15.28V.21C12.01,1.77,1.77,12.01.21,24.92h15.06c1.23-4.71,4.93-8.41,9.64-9.64Z"/>
      <path class="cls-3" d="M15.28,31.77H.21c1.56,12.91,11.79,23.15,24.71,24.71v-15.06c-4.71-1.23-8.41-4.93-9.64-9.64Z"/>
      <path class="cls-3" d="M41.47,25.14h15.04C55.04,12.12,44.76,1.78,31.77.21v15.06c4.78,1.25,8.53,5.05,9.7,9.86Z"/>
      <path class="cls-3" d="M31.77,41.41v15.06c12.84-1.55,23.03-11.68,24.68-24.49h-15.09c-1.29,4.61-4.95,8.21-9.59,9.42Z"/>
      <path class="cls-2" d="M28.35,14.82c1.19,0,2.33.17,3.43.45V.21c-1.12-.14-2.27-.21-3.43-.21s-2.3.08-3.43.21v15.06c1.1-.29,2.24-.45,3.43-.45Z"/>
      <path class="cls-2" d="M28.35,41.87c-1.19,0-2.33-.17-3.43-.45v15.06c1.12.14,2.27.21,3.43.21s2.3-.08,3.43-.21v-15.06c-1.1.29-2.24.45-3.43.45Z"/>
      <path class="cls-2" d="M14.82,28.35c0-1.19.17-2.33.45-3.43H.21c-.14,1.12-.21,2.27-.21,3.43s.08,2.3.21,3.43h15.06c-.29-1.1-.45-2.24-.45-3.43Z"/>
      <path class="cls-2" d="M56.51,25.14h-15.04c.25,1.03.4,2.1.4,3.2,0,1.27-.19,2.49-.51,3.65h15.09c.15-1.19.24-2.41.24-3.65,0-1.08-.07-2.15-.19-3.2Z"/>
    </g>
  </g>
</svg>