<?xml version="1.0" encoding="UTF-8"?>
<svg id="_레이어_2" data-name="레이어 2" xmlns="http://www.w3.org/2000/svg" viewBox="0 0 70.87 48.36">
  <defs>
    <style>
      .cls-1 {
        fill: #e2651f;
      }

      .cls-1, .cls-2, .cls-3 {
        stroke-width: 0px;
      }

      .cls-2 {
        fill: #ff9700;
      }

      .cls-3 {
        fill: #fff;
      }
    </style>
  </defs>
  <g id="_레이어_1-2" data-name="레이어 1">
    <g>
      <g>
        <rect class="cls-2" x="32.84" y="24.52" width="2.59" height="21.49" transform="translate(6.84 -5.53) rotate(10.28)"/>
        <g>
          <g>
            <path class="cls-1" d="M40.42.6C23.36-2.49,6.9,6.6,0,21.67h0c1.35-1.69,5.18-2.43,9.45-1.66s7.6,2.81,8.27,4.87c0,0,.63-18.45,22.71-24.29Z"/>
            <path class="cls-3" d="M17.72,24.89h0c1.35-1.69,5.18-2.43,9.45-1.66s7.6,2.81,8.27,4.87h0S40.42.6,40.42.6c-22.08,5.84-22.71,24.29-22.71,24.29Z"/>
          </g>
          <path class="cls-3" d="M40.42.6c17.07,3.1,29.28,17.39,30.44,33.93h0c-.67-2.06-4-4.1-8.27-4.87s-8.1-.04-9.45,1.66c0,0,5.9-17.49-12.73-30.72Z"/>
          <path class="cls-2" d="M53.15,31.32h0c-.67-2.06-4-4.1-8.27-4.87s-8.1-.04-9.45,1.66h0S40.42.6,40.42.6c18.62,13.22,12.73,30.72,12.73,30.72Z"/>
        </g>
      </g>
      <path class="cls-3" d="M47.32,48.36c-2.08,0-3.13-1.27-3.97-2.3-.8-.97-1.26-1.47-2.24-1.47s-1.44.51-2.24,1.48c-.84,1.02-1.89,2.29-3.97,2.29s-3.12-1.27-3.96-2.3c-.8-.97-1.26-1.47-2.24-1.47s-1.43.51-2.23,1.47c-.84,1.02-1.89,2.3-3.96,2.3s-3.12-1.27-3.96-2.3c-.79-.97-1.25-1.47-2.23-1.47v-3.86c2.07,0,3.12,1.27,3.96,2.3.8.97,1.26,1.47,2.23,1.47s1.44-.51,2.23-1.47c.84-1.02,1.89-2.3,3.96-2.3s3.12,1.27,3.96,2.3c.8.97,1.26,1.47,2.23,1.47s1.44-.51,2.24-1.47c.84-1.02,1.89-2.3,3.97-2.3s3.13,1.27,3.97,2.29c.8.97,1.26,1.48,2.24,1.48v3.86Z"/>
    </g>
  </g>
</svg>